<!-- This logo is built using https://looka.com/ -->
<?xml version="1.0" standalone="no"?>
<!DOCTYPE svg PUBLIC "-//W3C//DTD SVG 20010904//EN"
 "http://www.w3.org/TR/2001/REC-SVG-20010904/DTD/svg10.dtd">
<svg version="1.0" xmlns="http://www.w3.org/2000/svg"
 width="200.000000pt" height="100.000000pt" viewBox="0 0 798.000000 456.000000"
 preserveAspectRatio="xMidYMid meet">

<g transform="translate(0.000000,456.000000) scale(0.100000,-0.100000)"
fill="#000000" stroke="none">
<path d="M584 3550 c-11 -4 -32 -22 -47 -39 -74 -89 -16 -211 100 -211 35 0
48 6 78 35 19 20 35 40 35 45 0 6 31 10 69 10 59 0 74 -4 99 -24 33 -29 85
-122 101 -183 11 -40 201 -1087 215 -1181 15 -99 89 -183 180 -202 33 -7 181
-10 432 -8 l382 3 -15 38 -15 37 -388 0 c-378 0 -388 1 -414 21 -14 11 -33 33
-41 49 l-15 28 48 6 c26 3 203 15 395 28 191 12 351 25 357 28 5 3 5 22 -2 48
-9 38 -13 42 -41 42 -16 0 -196 -12 -399 -26 -204 -14 -372 -24 -373 -22 -9 8
-181 984 -175 991 4 4 402 6 886 5 985 -3 913 2 950 -76 16 -35 16 -46 -20
-346 -21 -171 -40 -320 -42 -331 -4 -16 3 -25 31 -38 20 -9 40 -17 45 -17 13
0 26 79 66 406 40 335 39 355 -18 420 -65 74 10 68 -1007 74 l-913 5 -23 67
c-29 86 -55 128 -112 178 -52 46 -94 60 -176 60 -53 0 -61 3 -85 31 -41 49
-100 69 -148 49z"/>
<path d="M1986 2901 c-9 -14 63 -161 79 -161 22 0 19 13 -19 96 -33 70 -48 86
-60 65z"/>
<path d="M2262 2887 c-14 -18 -52 -125 -52 -148 0 -14 6 -19 16 -17 16 3 63
115 64 150 0 22 -15 31 -28 15z"/>
<path d="M3662 2743 c-51 -25 -76 -68 -80 -140 l-4 -63 -34 0 c-27 0 -35 -5
-40 -24 -3 -13 -4 -35 -2 -47 2 -20 10 -24 46 -27 l42 -3 0 -185 0 -184 70 0
70 0 0 185 0 185 54 0 c49 0 54 2 58 25 3 14 3 37 0 51 -5 26 -6 26 -62 21
-58 -5 -58 -5 -64 25 -3 17 0 42 7 57 11 24 18 26 72 27 56 1 60 3 72 30 21
51 17 60 -38 72 -69 16 -128 15 -167 -5z"/>
<path d="M3900 2444 l0 -316 29 -29 c27 -27 35 -29 106 -29 l76 0 -3 52 c-3
50 -5 53 -33 58 l-30 5 -6 270 c-3 149 -6 271 -7 273 -6 10 -76 32 -102 32
l-30 0 0 -316z"/>
<path d="M1780 2710 c0 -22 155 -79 171 -63 13 13 -4 25 -74 51 -63 24 -97 28
-97 12z"/>
<path d="M5175 2698 c-5 -15 -45 -549 -45 -595 l0 -33 64 0 c58 0 64 2 69 23
3 12 9 112 12 222 4 110 9 207 12 215 3 8 26 -70 52 -175 l46 -190 76 -3 75
-3 43 178 c24 98 47 184 51 192 4 7 10 -49 14 -125 3 -77 9 -183 13 -236 l6
-98 68 0 c49 0 69 4 69 13 0 24 -40 543 -46 585 l-5 42 -94 0 -94 0 -11 -37
c-5 -21 -27 -111 -47 -200 -21 -89 -40 -157 -44 -150 -4 7 -10 30 -13 52 -4
22 -23 106 -43 188 l-35 147 -94 0 c-67 0 -96 -4 -99 -12z"/>
<path d="M5971 2405 c-56 -168 -101 -311 -101 -319 0 -15 62 -27 104 -19 21 4
29 15 43 62 9 31 20 60 24 64 3 5 52 9 108 10 l101 2 15 -51 c19 -67 43 -87
105 -88 27 -1 54 4 60 10 8 8 -15 92 -88 320 l-99 309 -86 3 -86 3 -100 -306z
m213 39 l33 -119 -65 -3 c-35 -2 -66 -1 -69 1 -2 3 11 59 28 126 18 66 34 119
36 117 3 -2 19 -57 37 -122z"/>
<path d="M6528 2704 c-5 -4 -8 -148 -8 -321 l0 -313 75 0 75 0 0 115 0 115 44
0 c24 0 48 -6 54 -13 6 -7 25 -51 42 -99 17 -47 40 -94 51 -104 26 -24 87 -24
122 -1 l26 17 -23 42 c-13 24 -31 66 -41 95 -10 31 -28 62 -45 77 l-29 24 35
27 c104 79 96 248 -14 313 -45 26 -54 27 -202 30 -85 2 -158 0 -162 -4z m281
-130 c30 -38 28 -98 -4 -129 -20 -21 -34 -25 -80 -25 l-55 0 0 90 0 90 59 0
c52 0 62 -3 80 -26z"/>
<path d="M7027 2677 c-3 -18 -3 -45 0 -59 5 -26 8 -27 82 -30 l76 -3 3 -257 2
-258 70 0 70 0 2 258 3 257 65 3 c71 3 100 22 100 67 0 56 7 55 -240 55 l-227
0 -6 -33z"/>
<path d="M2368 2654 c-67 -34 -81 -50 -54 -60 20 -8 150 59 154 79 5 26 -24
21 -100 -19z"/>
<path d="M2090 2570 c-8 -16 13 -96 110 -407 66 -214 125 -398 130 -411 8 -18
17 -23 38 -20 23 3 34 17 77 100 28 54 52 98 55 98 3 0 53 -63 110 -140 65
-87 113 -143 127 -146 17 -5 40 7 90 47 38 30 71 58 75 64 19 25 0 59 -102
185 -61 74 -110 137 -110 140 0 3 36 19 80 35 86 31 114 52 108 82 -2 13 -113
74 -373 205 -203 103 -378 187 -387 187 -10 1 -22 -8 -28 -19z m389 -244 l264
-133 -69 -27 c-79 -32 -94 -42 -94 -65 0 -9 52 -81 115 -161 63 -80 115 -148
115 -152 0 -4 -13 -16 -29 -28 l-30 -20 -113 149 c-62 83 -121 153 -131 156
-26 10 -48 -14 -87 -95 -19 -38 -37 -70 -40 -70 -3 0 -47 131 -97 290 -49 160
-85 290 -79 289 6 0 130 -60 275 -133z"/>
<path d="M4274 2531 c-79 -36 -119 -118 -117 -241 1 -166 76 -239 235 -228
127 9 177 50 130 108 -16 20 -22 21 -57 11 -71 -20 -121 -14 -144 15 -12 15
-21 35 -21 45 0 18 10 19 125 19 l125 0 2 43 c4 112 -9 156 -62 200 -57 48
-146 60 -216 28z m126 -101 c11 -11 20 -31 20 -45 0 -24 -3 -25 -60 -25 -62 0
-66 3 -54 46 6 21 36 42 62 43 6 1 21 -8 32 -19z"/>
<path d="M4775 2540 c-27 -4 -70 -13 -94 -19 -43 -12 -43 -13 -38 -49 10 -60
24 -67 103 -49 81 19 117 9 122 -34 3 -26 1 -26 -65 -31 -114 -8 -172 -56
-180 -147 -11 -123 119 -193 234 -126 l43 26 27 -20 c46 -33 74 -31 96 7 16
26 17 38 9 55 -6 12 -12 84 -14 159 -3 120 -6 141 -24 165 -42 56 -119 78
-219 63z m95 -309 c0 -42 -11 -56 -51 -66 -52 -13 -81 58 -37 89 12 9 37 16
55 16 32 0 33 -2 33 -39z"/>
<path d="M1833 2479 c-58 -27 -77 -49 -54 -63 11 -7 154 66 155 79 2 20 -40
13 -101 -16z"/>
<path d="M2003 2378 c-6 -7 -20 -43 -33 -81 -18 -52 -21 -70 -12 -79 17 -17
26 -4 55 77 23 66 25 95 7 95 -4 0 -12 -6 -17 -12z"/>
<path d="M1426 1587 c-53 -33 -86 -90 -86 -150 0 -80 49 -144 129 -168 138
-41 262 122 190 250 -46 83 -157 115 -233 68z m152 -93 c30 -35 30 -87 -3
-119 -59 -59 -155 -20 -155 64 0 82 102 117 158 55z"/>
<path d="M2445 1596 c-57 -26 -105 -101 -105 -166 0 -35 29 -97 57 -122 26
-24 87 -48 120 -48 101 0 190 119 163 219 -27 101 -142 158 -235 117z m108
-77 c52 -23 67 -102 28 -143 -45 -48 -118 -38 -145 19 -9 18 -16 38 -16 44 0
26 27 65 55 77 37 16 48 17 78 3z"/>
</g>
</svg>
